<?xml version="1.0" standalone="no"?>
<!DOCTYPE svg PUBLIC "-//W3C//DTD SVG 20010904//EN"
 "http://www.w3.org/TR/2001/REC-SVG-20010904/DTD/svg10.dtd">
<svg version="1.0" xmlns="http://www.w3.org/2000/svg"
 width="806.000000pt" height="806.000000pt" viewBox="0 0 806.000000 806.000000"
 preserveAspectRatio="xMidYMid meet">
<metadata>
Created by potrace 1.14, written by Peter Selinger 2001-2017
</metadata>
<g transform="translate(0.000000,806.000000) scale(0.100000,-0.100000)"
fill="#000000" stroke="none">
<path d="M7857 6164 c-1 -1 -29 -4 -62 -7 -408 -40 -691 -281 -780 -662 -18
-80 -31 -275 -21 -328 l7 -36 67 5 c241 17 515 127 663 265 167 155 254 421
240 736 l-1 33 -56 -3 c-30 -1 -56 -3 -57 -3z"/>
<path d="M988 4925 c-2 -1 -31 -5 -64 -9 -155 -16 -347 -88 -465 -175 -199
-146 -326 -370 -356 -626 -49 -431 104 -718 467 -875 47 -21 155 -61 240 -90
390 -132 473 -182 506 -301 19 -72 10 -135 -29 -201 -34 -56 -109 -115 -159
-125 -15 -3 -28 -8 -28 -12 0 -3 218 -6 485 -6 l486 0 15 50 c49 167 49 364
-1 575 -12 52 -53 139 -91 195 -135 197 -359 328 -754 441 -90 26 -93 27 -185
70 -77 36 -151 109 -161 158 -31 169 93 292 301 300 145 5 299 -46 445 -149
35 -25 64 -44 65 -42 10 12 295 580 295 586 0 20 -328 153 -432 175 -12 3 -41
10 -63 15 -22 5 -56 12 -76 15 -20 3 -42 7 -50 10 -39 13 -379 32 -391 21z"/>
<path d="M2300 4916 c0 -8 7 -36 15 -62 25 -83 76 -258 80 -274 2 -8 66 -233
143 -500 77 -267 206 -713 286 -992 80 -279 152 -524 159 -545 l12 -38 563 0
c510 0 565 1 573 16 4 9 61 171 124 360 64 189 145 429 181 533 56 166 74 214
74 194 0 -3 77 -232 171 -509 94 -277 175 -520 181 -539 5 -19 14 -39 19 -45
12 -12 1128 -14 1135 -3 3 4 32 101 65 215 161 554 192 662 206 713 8 30 27
98 43 150 15 52 30 104 33 115 3 11 34 121 70 245 36 124 105 360 152 525 47
165 95 329 106 364 10 35 19 69 19 76 0 11 -73 14 -395 15 -217 0 -395 -2
-395 -5 0 -4 -18 -77 -41 -163 -22 -86 -42 -164 -44 -172 -2 -8 -13 -53 -25
-100 -12 -47 -24 -93 -26 -102 -8 -34 -41 -164 -130 -508 -20 -74 -37 -142
-39 -150 -2 -8 -13 -53 -25 -100 -12 -47 -23 -92 -25 -100 -3 -14 -61 -236
-70 -270 -2 -8 -19 -72 -36 -142 -18 -71 -35 -128 -38 -128 -3 0 -16 33 -27
73 -12 39 -50 160 -84 267 -34 107 -63 200 -64 205 -1 6 -17 55 -35 110 -18
55 -34 105 -35 110 -3 12 -80 258 -108 340 -10 33 -21 67 -23 75 -2 8 -28 92
-58 185 -29 94 -82 261 -117 372 l-63 202 -304 0 c-166 1 -303 0 -303 -2 0 -6
-46 -155 -133 -432 -264 -836 -321 -1016 -339 -1075 -10 -36 -25 -83 -33 -105
-7 -22 -35 -107 -61 -190 -49 -157 -51 -158 -68 -70 -2 11 -29 117 -59 235
-68 264 -188 730 -192 750 -2 8 -29 114 -60 235 -32 121 -59 227 -60 235 -2 8
-27 104 -54 213 -28 109 -51 200 -51 202 0 2 -178 4 -395 4 -323 0 -395 -2
-395 -13z"/>
<path d="M6990 3717 l0 -1212 373 1 c204 1 375 2 379 3 4 0 7 545 7 1210 l-1
1209 -379 1 -379 0 0 -1212z"/>
<path d="M262 2728 c-18 -35 -50 -96 -72 -137 -22 -40 -40 -76 -40 -80 0 -3
151 -6 335 -6 184 0 331 2 327 5 -4 4 -41 17 -82 29 -122 38 -246 107 -365
203 -33 26 -62 48 -65 48 -3 0 -20 -28 -38 -62z"/>
<path d="M1050 2162 c-18 -42 -47 -106 -63 -142 -51 -113 -51 -110 -17 -110
24 0 31 6 41 35 13 35 17 37 64 37 60 0 65 -2 79 -37 12 -27 21 -35 40 -35 15
0 26 4 26 8 0 8 -128 313 -134 319 -1 2 -18 -32 -36 -75z m54 -93 l15 -36 -27
3 c-15 1 -30 2 -34 3 -4 1 0 17 9 36 19 40 18 40 37 -6z"/>
<path d="M3006 2213 c-3 -15 -15 -80 -26 -143 -11 -63 -23 -125 -26 -137 -4
-20 0 -23 26 -23 21 0 30 5 30 17 0 9 5 46 11 81 l12 65 35 -86 c20 -48 38
-87 42 -87 4 0 23 39 42 87 l36 87 7 -45 c10 -52 13 -78 14 -101 1 -13 9 -18
32 -18 24 0 29 4 25 18 -2 9 -15 80 -27 157 -12 77 -25 143 -29 148 -3 4 -26
-40 -50 -98 -24 -58 -46 -105 -49 -105 -3 0 -24 44 -45 98 -46 115 -52 123
-60 85z"/>
<path d="M3438 2132 c-26 -59 -58 -133 -72 -164 l-26 -58 30 0 c25 0 33 6 45
38 16 39 11 38 113 33 7 -1 20 -17 28 -36 11 -27 20 -35 39 -35 14 0 25 4 25
9 0 11 -121 303 -129 313 -4 4 -28 -41 -53 -100z m72 -83 c0 -10 -9 -15 -29
-15 l-30 0 15 34 c8 19 14 37 14 41 1 13 29 -45 30 -60z"/>
<path d="M4979 2227 c-1 -17 -1 -289 0 -304 1 -7 12 -13 26 -13 25 0 25 0 25
98 l1 97 32 -35 c17 -20 62 -69 99 -110 l68 -75 0 168 0 167 -25 0 c-27 0 -29
-6 -26 -132 1 -32 -1 -58 -4 -58 -3 0 -22 19 -43 42 -102 116 -152 166 -153
155z"/>
<path d="M5958 2132 c-25 -59 -58 -133 -72 -164 l-26 -58 30 0 c24 0 32 6 44
34 15 35 39 45 99 38 22 -3 32 -12 43 -38 12 -28 20 -34 44 -34 l29 0 -18 43
c-10 23 -40 94 -66 157 -26 63 -51 118 -54 122 -4 5 -28 -40 -53 -100z m69
-67 c10 -29 9 -30 -18 -31 -32 -2 -35 9 -16 49 13 29 20 26 34 -18z"/>
<path d="M6860 2078 l0 -168 25 0 c25 0 25 0 25 98 l1 97 42 -46 c23 -25 68
-74 100 -110 l57 -64 1 45 c0 45 0 254 -1 278 0 6 -11 12 -25 12 -25 0 -25 0
-25 -97 l0 -98 -43 45 c-23 25 -68 74 -100 110 l-57 65 0 -167z"/>
<path d="M215 2220 c-80 -17 -131 -89 -122 -173 7 -82 64 -139 140 -139 62 0
87 15 87 52 0 33 -6 36 -34 15 -46 -35 -113 -10 -136 51 -33 87 67 181 136
129 29 -22 36 -18 32 17 -2 26 -9 33 -38 43 -19 6 -49 9 -65 5z"/>
<path d="M5455 2222 c-30 -6 -83 -49 -100 -82 -20 -38 -19 -113 1 -152 67
-129 253 -96 257 44 l2 43 -60 0 c-58 0 -60 -1 -63 -27 -3 -22 0 -26 15 -24
10 2 26 1 36 -3 17 -6 17 -8 -3 -34 -36 -46 -106 -34 -135 23 -29 55 -12 121
36 146 40 20 68 17 104 -11 31 -23 33 -23 49 -6 15 16 14 19 -12 44 -28 26
-91 46 -127 39z"/>
<path d="M6312 2216 c-124 -42 -145 -224 -34 -289 62 -37 157 -16 186 41 21
40 29 102 13 103 -6 1 -36 2 -64 3 -51 1 -53 0 -53 -26 0 -24 4 -27 38 -30
l37 -3 -27 -27 c-37 -38 -80 -37 -119 1 -49 50 -36 138 25 167 39 19 77 13
104 -16 16 -17 21 -18 37 -6 52 38 -67 107 -143 82z"/>
<path d="M7324 2214 c-21 -8 -40 -14 -41 -14 -1 0 -14 -18 -30 -40 -76 -102
-10 -253 109 -253 61 0 88 17 88 53 0 33 -6 36 -34 15 -27 -20 -79 -19 -103 3
-54 47 -58 109 -9 158 40 40 80 44 120 13 l27 -22 -3 39 c-3 35 -6 39 -44 50
-32 9 -48 9 -80 -2z"/>
<path d="M425 2211 c-2 -5 -4 -74 -4 -155 l0 -146 27 0 c28 0 28 1 27 55 -1
30 1 55 4 55 3 0 21 -25 39 -55 28 -47 38 -55 63 -55 16 0 29 3 29 8 0 4 -17
32 -39 62 l-39 54 24 18 c45 36 40 123 -8 149 -26 14 -116 21 -123 10z m103
-69 c6 -9 12 -19 12 -23 0 -14 -32 -39 -50 -39 -15 0 -17 7 -15 43 2 23 4 43
4 44 3 6 38 -12 49 -25z"/>
<path d="M709 2217 c-1 -1 -2 -71 -3 -154 l-1 -153 82 0 c82 0 83 0 83 25 0
26 -4 28 -77 27 -29 0 -31 2 -35 39 -2 22 -2 42 1 45 2 2 27 4 55 4 48 0 52 2
54 25 1 20 -3 25 -21 26 -85 3 -82 2 -82 34 0 29 1 30 50 30 47 0 50 2 53 26
l3 27 -80 0 c-45 0 -82 0 -82 -1z"/>
<path d="M1266 2211 c-10 -16 2 -46 20 -47 10 -1 25 -2 32 -3 9 -1 12 -31 10
-123 l-2 -123 27 -3 26 -3 3 128 3 128 25 -1 c28 -2 40 10 33 36 -4 15 -17 18
-89 18 -46 1 -86 -2 -88 -7z"/>
<path d="M1530 2064 l0 -155 27 3 28 3 0 151 0 151 -27 1 -28 1 0 -155z"/>
<path d="M1670 2216 c0 -1 11 -32 24 -67 94 -253 100 -267 109 -253 5 8 49
120 102 260 l24 61 -29 1 c-26 1 -30 -5 -60 -86 -18 -48 -35 -90 -39 -94 -3
-4 -17 21 -29 55 -43 116 -50 127 -77 127 -14 0 -25 -2 -25 -4z"/>
<path d="M2010 2064 l0 -154 83 0 c81 0 83 1 85 25 2 26 -2 28 -75 27 -18 0
-34 5 -34 11 -1 7 -2 27 -3 45 l-2 32 53 0 c50 0 53 1 53 25 0 14 -4 25 -10
26 -5 0 -29 2 -52 2 -35 2 -42 5 -45 26 -4 32 8 39 63 35 24 -2 44 0 45 4 0 4
2 17 5 29 3 21 1 21 -81 21 l-85 0 0 -154z"/>
<path d="M2500 2200 c-22 -22 -26 -60 -10 -90 8 -15 5 -25 -15 -46 -57 -61
-21 -156 59 -156 20 0 47 7 60 16 21 13 26 13 36 1 12 -14 70 -22 70 -10 0 3
-10 19 -22 35 -19 26 -20 33 -8 55 11 20 11 27 0 40 -12 14 -15 14 -31 -1 -11
-10 -20 -15 -22 -13 -1 2 -10 14 -21 26 -17 21 -17 22 3 44 29 31 28 83 -1
103 -31 22 -74 20 -98 -4z m70 -44 c0 -7 -6 -19 -14 -25 -11 -9 -15 -8 -20 5
-3 9 -4 20 0 25 8 14 34 11 34 -5z m10 -172 c0 -13 -23 -24 -51 -24 -27 0 -36
45 -13 71 18 20 18 19 40 -8 13 -15 23 -33 24 -39z"/>
<path d="M3710 2065 l0 -155 25 0 c27 0 28 3 26 68 -1 23 1 42 3 42 3 0 21
-25 41 -55 29 -47 39 -55 65 -55 16 0 30 3 30 6 0 3 -18 30 -39 60 l-39 55 24
24 c13 13 25 31 25 40 1 8 2 21 3 28 4 23 -16 67 -34 77 -10 6 -44 12 -74 15
l-56 6 0 -156z m108 67 c4 -27 -14 -52 -38 -52 -13 0 -17 10 -18 41 -2 38 -1
40 26 37 19 -2 28 -9 30 -26z"/>
<path d="M3995 2212 c-3 -3 -5 -72 -5 -154 l0 -148 28 0 c29 0 29 1 28 56 -1
31 2 58 5 60 3 2 25 -24 49 -56 38 -53 48 -60 77 -60 18 0 33 2 33 4 0 2 -27
38 -60 81 -68 88 -68 84 9 160 28 27 51 52 51 56 0 4 -15 7 -32 7 -26 -1 -42
-11 -77 -50 -24 -27 -46 -46 -49 -43 -4 3 -6 25 -7 48 0 36 -3 42 -22 43 -12
1 -25 -1 -28 -4z"/>
<path d="M4304 2208 c-7 -10 -8 -124 -5 -270 l1 -28 80 0 c79 0 80 0 80 25 0
26 -1 27 -77 27 -32 1 -33 2 -33 44 l0 44 55 0 c52 0 55 1 55 25 0 26 -3 27
-72 27 -35 0 -38 2 -38 28 0 33 10 38 68 35 40 -1 42 0 42 26 0 27 0 27 -75
28 -47 0 -77 -4 -81 -11z"/>
<path d="M4540 2189 c0 -28 2 -31 24 -25 14 3 28 1 31 -5 4 -5 6 -64 6 -130
l-2 -119 29 0 28 0 -1 128 0 127 30 0 c25 0 30 4 30 25 0 25 -2 25 -87 28
l-88 2 0 -31z"/>
<path d="M4808 2075 c-2 -80 -1 -150 0 -155 2 -6 15 -10 28 -10 l25 0 -3 153
c-3 148 -4 152 -25 155 -22 3 -22 1 -25 -143z"/>
<path d="M6590 2064 l0 -154 79 0 c76 0 79 1 83 25 5 23 2 25 -31 26 -20 1
-46 0 -58 -1 -21 -1 -23 3 -23 44 l0 46 55 0 c52 0 55 1 55 25 0 27 -1 27 -67
28 -41 0 -43 1 -43 31 l0 32 55 -2 c54 -1 55 -1 55 27 l0 28 -80 -1 -80 0 0
-154z"/>
<path d="M7520 2215 c0 -4 20 -44 44 -91 34 -64 44 -95 44 -131 1 -84 0 -83
27 -83 24 0 25 2 25 66 0 58 5 74 45 148 25 46 45 86 45 88 0 3 -13 5 -28 6
-24 0 -32 -7 -56 -54 -16 -30 -31 -52 -35 -49 -3 3 -17 27 -31 53 -19 36 -31
48 -52 50 -16 2 -28 0 -28 -3z"/>
</g>
</svg>
